# xmcd CD database file
#
# Track frame offsets:
#	150
#	19747
#	42130
#	57856
#	81985
#	98888
#	122389
#	142256
#	174055
#	198086
#	218937
#	249295
#	276689
#	294888
#
# Disc length: 4209 seconds
#
# Revision: 0
# Processed by: cddbd v1.5.2PL0 Copyright (c) Steve Scherf et al.
# Submitted via: CDex 1.51
#
DISCID=c3106f0e
DTITLE=European Jazz In Hi-Fi Vol.3 - European Jazz In Hi-Fi Vol.3
DYEAR=2007
DGENRE=Jazz
TTITLE0=Inga Marie - I don't want to talk about it
TTITLE1=Maja Christina - Out of the blue
TTITLE2=Nadja Stoller Group - Of smiles remembered
TTITLE3=Peter Fuglsang Quartet - Cherokee
TTITLE4=Malene Mortensen - November came
TTITLE5=Tohams Fryland Sextet - Man binder os pa mund og hand
TTITLE6=Katrine Madsen Feat.Ulf Wakenius - I'll keep you satisfied
TTITLE7=Kasper Villaume Trio Feat. Jeff'Tain' Watts - Caravan
TTITLE8=Nadja Stoller Trio - You go to my head
TTITLE9=George Garzone - Balld for trane
TTITLE10=Trine-lise Vaering Feat. Bobo Stenson - My favorite thing
TTITLE11=Music music music - What a wonderful world
TTITLE12=Caroline Henderson - Someone to watch over me
TTITLE13=Mads Vinding Trio Feat. Enrico Pieranunzi - September waltz
EXTD=YEAR: 2007
EXTT0=
EXTT1=
EXTT2=
EXTT3=
EXTT4=
EXTT5=
EXTT6=
EXTT7=
EXTT8=
EXTT9=
EXTT10=
EXTT11=
EXTT12=
EXTT13=
PLAYORDER=
